HIERARCHY
ROOT Pelvis
{
	OFFSET 0 0 0
	CHANNELS 6 Xposition Yposition Zposition Xrotation Yrotation Zrotation 
	JOINT PelvisLeftUpperLeg
	{
		OFFSET        0        0 -9.19895
		CHANNELS 6 Xposition Yposition Zposition Xrotation Yrotation Zrotation 
		JOINT LeftUpperLegLeftLowerLeg
		{
			OFFSET -0.890644  -45.8097  0.343891
			CHANNELS 6 Xposition Yposition Zposition Xrotation Yrotation Zrotation 
			JOINT LeftLowerLegLeftFoot
			{
				OFFSET -1.29749 -44.4256        0
				CHANNELS 6 Xposition Yposition Zposition Xrotation Yrotation Zrotation 
				End Site
{
					OFFSET  15.3609   1.8433 -4.30104
				}
			}
		}
	}
	JOINT PelvisRightUpperLeg
	{
		OFFSET       0       0 9.19895
		CHANNELS 6 Xposition Yposition Zposition Xrotation Yrotation Zrotation 
		JOINT RightUpperLegRightLowerLeg
		{
			OFFSET -0.890644  -45.8097 -0.343891
			CHANNELS 6 Xposition Yposition Zposition Xrotation Yrotation Zrotation 
			JOINT RightLowerLegRightFoot
			{
				OFFSET -1.29749 -44.4256        0
				CHANNELS 6 Xposition Yposition Zposition Xrotation Yrotation Zrotation 
				End Site
{
					OFFSET 15.3609  1.8433 4.30104
				}
			}
		}
	}
	JOINT PelvisThorax
	{
		OFFSET -2.57589  15.8963        0
		CHANNELS 6 Xposition Yposition Zposition Xrotation Yrotation Zrotation 
		JOINT ThoraxLeftUpperArm
		{
			OFFSET -11.5193  39.6182  -18.732
			CHANNELS 6 Xposition Yposition Zposition Xrotation Yrotation Zrotation 
			JOINT LeftUpperArmLeftForearm
			{
				OFFSET  1.36806  -29.796 0.998672
				CHANNELS 6 Xposition Yposition Zposition Xrotation Yrotation Zrotation 
				JOINT LeftForearmLeftHand
				{
					OFFSET 0.077273 -24.5989 0.518175
					CHANNELS 6 Xposition Yposition Zposition Xrotation Yrotation Zrotation 
					End Site
{
						OFFSET        0 -10.1353        0
					}
				}
			}
		}
		JOINT ThoraxRightUpperArm
		{
			OFFSET -11.5193  39.6182   18.732
			CHANNELS 6 Xposition Yposition Zposition Xrotation Yrotation Zrotation 
			JOINT RightUpperArmRightForearm
			{
				OFFSET   1.36806   -29.796 -0.998672
				CHANNELS 6 Xposition Yposition Zposition Xrotation Yrotation Zrotation 
				JOINT RightForearmRightHand
				{
					OFFSET  0.077273  -24.5989 -0.518175
					CHANNELS 6 Xposition Yposition Zposition Xrotation Yrotation Zrotation 
					End Site
{
						OFFSET        0 -10.1353        0
					}
				}
			}
		}
		JOINT ThoraxHead
		{
			OFFSET      -16.016      54.2047 -1.15196e-17
			CHANNELS 6 Xposition Yposition Zposition Xrotation Yrotation Zrotation 
			End Site
{
				OFFSET       0 11.9494       0
			}
		}
	}
}
MOTION
Frames: 11
Frame Time: 0.01
106.247 95.9655 -7.74383 -67.5062 82.7488 65.55 0.476224 0.398676 -9.2393 9.41879 3.82166 -4.79894 0.968907 -46.3975 0.421853 -5.93422 0.941885 -12.8949 -5.75752 -49.7158 1.97353 -7.64967 34.5189 15.6594 -0.498257 -0.186843 9.09938 8.51422 -4.92562 12.9958 -0.346208 -45.6146 -0.165446 3.09024 2.98914 -8.17538 -6.84269 -48.8634 -1.28356 0.905267 -21.3853 -2.75505 -2.44988 15.4455 0.296468 4.85727 -7.71099 -32.727 -11.2359 39.7759 -18.7657 -8.71125 30.8914 32.527 2.53707 -31.6302 -1.32787 -5.47225 -26.1851 22.7354 0.110617 -24.6697 0.485612 11.2859 -14.9728 6.81324 -10.4339 39.9867 19.3354 -6.58928 -27.3674 30.6592 4.74898 -31.8085 0.832407 -11.3731 33.111 62.0404 0.0756883 -25.1302 -0.64129 -19.5472 24.5048 9.57689 -16.1483 54.1411 -0.273266 -7.94737 18.3888 48.5046 
105.914 95.9055 -6.6378 -72.7291 83.3428 70.3044 0.448456 0.455117 -9.29962 8.29563 4.95751 -4.27599 0.852573 -46.43 0.334559 -5.1382 -0.113544 -10.9572 -5.47288 -49.8022 1.85779 -5.92473 34.8258 14.9004 -0.549795 -0.216521 9.18902 8.13144 -6.41535 14.8787 -0.443347 -45.6619 -0.20729 3.23002 2.88794 -9.65039 -6.79762 -48.8945 -1.33459 2.74004 -20.7146 -2.05511 -2.631 15.4423 0.24763 4.41192 -7.03534 -32.8934 -10.9797 40.0216 -18.5586 -8.04634 29.3081 33.3173 2.5395 -31.6205 -1.28537 -5.68546 -26.2195 23.0511 0.104766 -24.6733 0.501636 11.4561 -14.9263 6.78953 -10.7615 39.8474 19.6042 -5.76366 -27.2012 30.1663 4.60093 -31.935 0.74469 -11.3318 34.7073 58.2971 0.18581 -25.1612 -0.659737 -19.2423 23.324 9.71235 -16.2527 54.1615 -0.0491016 -7.24126 17.0349 49.2568 
105.591 95.9022 -5.49005 -78.4003 84.0003 75.5658 0.466261 0.476936 -9.28064 7.05458 5.05087 -3.70691 0.854171 -46.4146 0.339245 -4.25697 -0.292988 -9.39575 -5.23014 -49.8321 1.83012 -4.27609 35.1811 14.1549 -0.67509 -0.304837 9.26778 7.45624 -7.28016 16.8754 -0.445082 -45.7056 -0.236931 3.2387 1.56275 -11.4466 -6.74763 -48.9704 -1.37 5.0143 -19.5039 -1.06559 -2.9348 15.4895 0.321439 3.54877 -7.3408 -33.4418 -11.0273 40.1538 -18.5748 -7.85932 28.7182 34.4474 2.57041 -31.5951 -1.23146 -5.92258 -26.3062 23.4996 0.104428 -24.6776 0.517124 11.8035 -14.8026 6.80796 -10.7147 39.8406 19.5874 -5.05708 -26.0542 30.221 4.36071 -32.1021 0.650618 -11.6178 36.1229 55.052 0.228546 -25.1479 -0.657932 -18.4523 22.8296 9.86399 -16.3503 54.1938 -0.0444986 -6.92805 16.6686 50.3615 
105.238 95.94 -4.3515 -84.047 84.672 81.3009 0.44031 0.384962 -9.11475 6.15061 4.16473 -3.59184 0.789154 -46.264 0.386165 -4.10419 -0.399966 -7.8899 -5.07972 -49.8133 1.77684 -2.90288 35.6294 13.3317 -1.02765 -0.519627 9.22113 5.81312 -6.56915 18.5359 -0.366659 -45.7229 -0.346531 3.43916 -1.55549 -13.4886 -6.67915 -49.0693 -1.44123 7.24635 -18.3285 -0.10684 -3.51526 15.617 0.309877 2.57511 -7.23984 -35.2441 -11.0633 40.3484 -18.5423 -7.74106 27.7212 36.232 2.61173 -31.552 -1.17245 -6.19685 -26.4225 24.0473 0.110969 -24.6763 0.52478 12.2376 -14.5946 6.79989 -10.7462 39.9077 19.6292 -3.50715 -25.2126 31.0566 4.08425 -32.218 0.648834 -12.9911 37.4577 52.9307 0.214638 -25.1204 -0.656464 -17.4312 23.0135 9.99178 -16.5912 54.2385 -0.00221655 -6.6423 15.8962 52.0938 
104.873 95.9194 -3.21514 -91.0368 85.2844 88.6168 0.496059 0.271366 -8.89368 5.66846 3.28022 -3.82531 0.72058 -46.0401 0.471273 -4.40903 -0.872199 -6.52892 -4.95435 -49.7805 1.76938 -2.20567 35.8866 12.6468 -1.41621 -0.750343 9.12265 3.56841 -5.29443 20.0011 -0.197675 -45.7641 -0.495643 3.61098 -6.01785 -15.889 -6.57505 -49.1881 -1.55271 9.71095 -16.9586 1.0263 -3.50144 15.7665 0.271247 1.77383 -7.04314 -36.4994 -11.006 40.3626 -18.5236 -7.22548 26.599 37.0104 2.65536 -31.5143 -1.14616 -6.37363 -26.6229 24.8166 0.113132 -24.6658 0.517673 12.5578 -14.4345 6.69125 -10.7223 39.8805 19.662 -2.52262 -23.9578 30.7872 3.88867 -32.214 0.788712 -14.286 37.8839 51.1688 0.202437 -25.0891 -0.630902 -16.5992 23.7051 9.91267 -16.5502 54.2155 -0.0138734 -6.24337 15.0469 52.9079 
104.587 95.8384 -1.38676 -99.3327 85.8887 97.5014 0.499814 0.201331 -8.7012 5.35096 2.63587 -4.42116 0.642865 -45.7769 0.53932 -4.84734 -0.98943 -5.30236 -5.15307 -49.6813 1.88013 -2.27926 35.4447 12.0775 -1.71586 -0.944953 9.03147 0.914106 -3.59326 21.2217 -0.00688815 -45.8206 -0.492775 4.06287 -10.9816 -18.4266 -6.35913 -49.3548 -1.63777 11.4388 -16.199 2.30473 -3.29966 15.8921 0.265093 0.81052 -7.16646 -37.7239 -11.0424 40.3158 -18.5732 -6.81106 26.0382 37.4803 2.69423 -31.4899 -1.13492 -6.50558 -27.1194 25.8242 0.10881 -24.6485 0.502849 12.6998 -14.4286 6.54559 -10.598 39.8525 19.5816 -1.5936 -22.6984 30.4065 3.78025 -32.0728 0.898373 -14.6868 38.1922 49.0768 0.228085 -25.0847 -0.612193 -16.72 23.8576 10.0307 -16.4317 54.1909 -0.103873 -5.98323 14.5752 53.3717 
104.185 95.7168 0.0349403 -109.708 86.5297 108.478 0.678401 0.206927 -8.6348 4.88971 2.99977 -5.17966 0.571712 -45.5625 0.618117 -5.1675 -1.90727 -4.14714 -5.28462 -49.6517 1.98397 -2.29633 35.0929 11.3081 -1.79465 -1.04631 8.89962 -1.94568 -2.31585 22.0993 0.0420167 -45.8507 -0.457319 4.55509 -15.4013 -20.7775 -6.18653 -49.5427 -1.71228 11.8081 -15.9255 3.55394 -3.23859 16.0151 0.260495 -0.287208 -7.00874 -39.1225 -11.0959 40.3171 -18.5978 -6.4645 25.4692 38.0829 2.7245 -31.4706 -1.13971 -6.57477 -27.7365 27.0378 0.0931555 -24.628 0.487804 12.6169 -14.7312 6.53443 -10.568 39.813 19.4947 -0.414861 -22.0954 30.2903 3.68783 -31.8862 0.895821 -14.1937 38.2464 46.7947 0.265089 -25.0764 -0.59141 -17.1722 23.686 10.382 -16.3713 54.2009 -0.148603 -5.66509 13.9281 53.9039 
103.768 95.6243 1.19662 -120.629 87.1292 119.968 0.865878 0.255887 -8.74771 4.06109 3.95629 -5.93331 0.456077 -45.4348 0.620726 -5.10255 -2.94585 -2.97201 -5.42919 -49.6204 1.99261 -1.95981 34.6502 10.2764 -1.57843 -1.00092 8.86612 -4.18212 -1.58719 22.5008 0.0373955 -45.9049 -0.236093 5.03154 -18.1286 -22.8256 -5.85549 -49.685 -1.86606 11.3816 -17.3802 5.12108 -3.45362 16.1487 0.282354 -1.4418 -6.73212 -40.9391 -11.2748 40.3124 -18.6331 -6.45128 25.3061 39.2107 2.76501 -31.4316 -1.10265 -6.74871 -28.542 28.2189 0.0965581 -24.6089 0.493091 12.5584 -15.0773 6.62253 -10.6297 39.8328 19.385 0.965389 -21.4083 30.7858 3.58858 -31.7092 0.894973 -13.4496 37.9372 44.428 0.317694 -25.0424 -0.566099 -17.5451 23.2904 10.7467 -16.4571 54.2406 -0.225476 -5.49136 13.404 54.8432 
103.374 95.6157 2.14823 -129.124 87.4781 129.186 0.943653 0.266683 -8.92337 3.27649 4.61488 -6.87193 0.369681 -45.3434 0.584133 -4.75293 -3.77829 -1.81234 -5.47645 -49.5561 2.02367 -1.81988 34.5323 9.27322 -1.14657 -0.87113 8.86427 -5.51993 -1.60799 22.2463 0.0363403 -45.9983 -0.0856184 5.03747 -19.1049 -24.67 -5.61778 -49.7146 -2.01273 10.1082 -19.0443 6.12608 -3.88416 16.3212 0.35808 -2.38766 -6.37079 -43.3546 -11.5392 40.2768 -18.6663 -6.78538 25.5427 40.8673 2.8004 -31.3823 -1.03788 -7.03869 -29.5376 29.3621 0.104816 -24.5841 0.506809 12.5295 -15.4651 6.81411 -10.75 39.8901 19.2615 2.52823 -20.6075 31.8756 3.47822 -31.5453 0.913702 -12.5164 37.2614 42.0302 0.372853 -24.9888 -0.548177 -17.8225 22.6652 11.1259 -16.6473 54.2932 -0.31407 -5.44966 12.994 56.15 
103.034 95.6133 2.86136 -135.097 87.6219 135.757 0.90947 0.260961 -8.97646 2.79885 4.26361 -7.79151 0.422907 -45.2204 0.567038 -4.55758 -3.46701 -0.62569 -5.45403 -49.5194 2.06712 -1.71126 34.3007 8.46715 -0.766855 -0.74229 8.82718 -6.67574 -1.6547 21.9632 0.0146966 -46.0882 0.0374387 5.11065 -19.7388 -26.61 -5.47123 -49.7403 -2.07696 8.87349 -20.4828 7.04596 -3.40929 16.3138 0.41505 -2.82662 -6.18483 -43.945 -11.5858 39.933 -18.7158 -6.88751 26.2128 40.6727 2.84813 -31.3314 -0.962212 -7.17311 -30.6901 30.5386 0.122163 -24.5711 0.544496 12.7802 -15.774 7.12717 -10.7326 39.7897 19.1315 3.30264 -20.0375 31.4 3.33628 -31.4099 0.939372 -12.0666 36.7731 40.0471 0.399975 -24.9307 -0.529019 -18.062 22.1551 11.4837 -16.3002 54.2442 -0.471621 -5.44197 12.8141 55.6145 
102.801 95.6288 3.33481 -138.318 87.6902 139.59 0.75842 0.223816 -8.92512 2.67125 3.37384 -8.66787 0.470295 -45.0837 0.599787 -4.7222 -2.46727 0.41915 -5.42194 -49.5027 2.09522 -1.68776 33.8378 7.79258 -0.566256 -0.635726 8.83062 -7.74904 -1.17251 21.6806 -0.0792553 -46.1515 0.158576 5.28146 -20.1353 -28.5239 -5.42208 -49.7045 -2.08372 7.98951 -21.7138 7.57246 -2.87567 16.2445 0.460572 -3.16206 -6.33841 -44.1942 -11.7122 39.5669 -18.7963 -7.2199 27.3136 39.9619 2.92977 -31.2795 -0.919839 -7.1002 -31.785 31.8393 0.146334 -24.5578 0.574446 13.0916 -15.9852 7.43321 -10.679 39.7217 18.9528 3.48538 -19.0798 30.5346 3.224 -31.2791 0.953804 -11.7403 36.0324 38.3168 0.406901 -24.8773 -0.509419 -18.4693 21.8712 11.892 -15.9696 54.1811 -0.639186 -5.64007 12.9855 54.6432 
